<?xml version="1.0" encoding="UTF-8" standalone="no"?>
<!-- Created with Inkscape (http://www.inkscape.org/) -->

<svg
   version="1.1"
   id="svg1"
   width="288.50421"
   height="249.98856"
   viewBox="0 0 288.50421 249.98856"
   xmlns="http://www.w3.org/2000/svg"
   xmlns:svg="http://www.w3.org/2000/svg">
  <defs
     id="defs1" />
  <path
     style="fill:#f9f9f9"
     d="M 36.760312,189.42955 1.7603123,128.87056 0.88015613,126.61052 0,124.35049 35.880156,62.175245 71.760312,0 l 72.499998,0.0091 72.5,0.0091 12.75,22.239645 12.75,22.239645 v 0.747723 0.747648 H 170.34437 98.428427 L 75.844369,85.067602 53.260312,124.14234 v 0.85052 0.85052 l 22.584057,39.07474 22.584058,39.07474 h 45.831883 45.83189 l 22.58405,-39.07474 22.58406,-39.07474 v -0.42526 -0.42526 h -45.82302 -45.82302 l -5.57919,-9.75 -5.57919,-9.75 -7.09779,-12.286649 -7.09779,-12.286641 v -0.463355 -0.463354 h 72.47432 72.47432 l 1.67338,3.25 1.67338,3.25 10.97425,18.952149 10.97425,18.95215 -0.87195,2.2367 -0.87195,2.2367 -35,60.55899 -35,60.559 h -72.5 -72.499998 z"
     id="path1" />
</svg>
