<?xml version="1.0" encoding="UTF-8" standalone="no"?>
<!-- Generator: Adobe Illustrator 22.1.0, SVG Export Plug-In . SVG Version: 6.00 Build 0)  -->

<svg
   version="1.1"
   id="Layer_1"
   x="0px"
   y="0px"
   viewBox="0 0 61.810753 134.3"
   xml:space="preserve"
   width="61.810753"
   height="134.3"
   xmlns="http://www.w3.org/2000/svg"
   xmlns:svg="http://www.w3.org/2000/svg"><defs
   id="defs7" />
<style
   type="text/css"
   id="style1">
	.st0{fill:#0091D2;}
	.st1{fill:#D62631;}
	.st2{fill:#284592;}
	.st3{fill:#434242;}
</style>
<g
   id="_2419053157680"
   transform="translate(-69.803688,-31.196842)">
	<path
   class="st0"
   d="m 102.71444,90.196842 c 1.4,-5 6.6,-29.1 28.9,-45.1 -17.8,7.9 -27.7,28.3 -28.9,45.1 z"
   id="path1"
   style="fill:#f9f9f9" />
	<path
   class="st0"
   d="m 96.414438,165.49684 c 29.700002,-28.2 10.200002,-57 26.900002,-80.599998 -11.1,28.799998 19.4,64.199998 -26.900002,80.599998 z"
   id="path2"
   style="fill:#f9f9f9" />
	<path
   class="st1"
   d="m 102.61444,98.396842 c 7.3,-25 15.8,-32.5 24.7,-37.3 0.1,-0.3 4.1,-12.1 4.1,-12.2 -14.9,6.6 -26.7,29.5 -28.8,49.5 z"
   id="path3"
   style="fill:#f9f9f9" />
	<path
   class="st2"
   d="m 96.414438,158.79684 c -35.3,-58.4 16.400002,-82.299998 0,-127.599998 5.000002,51 -62.3,79.799998 0,127.599998 z"
   id="path4"
   style="fill:#f9f9f9" />
	
	
	
	
</g>
</svg>
