<?xml version="1.0" encoding="UTF-8" standalone="no"?>
<svg
   fill="none"
   height="48.599998"
   viewBox="0 0 54.900002 48.599998"
   width="54.900002"
   class="w-[200px] lg:w-[250px] mx-auto lg:mx-0"
   version="1.1"
   id="svg28"
   xmlns="http://www.w3.org/2000/svg"
   xmlns:svg="http://www.w3.org/2000/svg">
  <defs
     id="defs28" />
  <g
     id="g2"
     transform="translate(-1.9,-3.2)"
     style="fill:#f9f9f9">
    <polygon
       fill="currentColor"
       fill-rule="evenodd"
       clip-rule="evenodd"
       points="18.3,37.9 21.6,33.7 25,37.9 29.3,43.4 33.6,37.9 29.3,32.4 26,28.2 29.3,24 32.6,28.2 37,33.7 40.3,37.9 37,42.1 32.6,47.6 29.3,51.8 26,47.6 21.6,42.1 "
       id="polygon1"
       style="fill:#f9f9f9" />
    <polygon
       fill="currentColor"
       fill-rule="evenodd"
       clip-rule="evenodd"
       points="36.7,23 33.4,18.8 29.3,13.7 25.2,18.9 21.9,23.1 17.6,28.5 14.2,32.7 10.9,28.5 8,24.9 5.2,21.3 1.9,17.1 5.2,13 9.5,7.5 12.9,3.3 16.2,7.5 19,11 15.6,15.2 12.9,11.7 8.5,17.1 11.3,20.7 14.2,24.3 18.6,18.9 21.9,14.7 26,9.5 29.3,5.3 32.6,9.5 36.7,14.7 40,18.8 44.4,24.3 47.3,20.6 50.1,17.1 45.8,11.6 43,15.2 39.6,11 42.4,7.4 45.8,3.2 49.1,7.4 53.4,12.9 56.8,17.1 53.4,21.3 50.6,24.8 47.7,28.5 44.4,32.7 41.1,28.5 "
       id="polygon2"
       style="fill:#f9f9f9" />
  </g>
</svg>
