<?xml version="1.0" encoding="UTF-8" standalone="no"?>
<svg
   version="1.0"
   width="163.72479pt"
   height="59.872288pt"
   viewBox="0 0 163.72479 59.872288"
   preserveAspectRatio="xMidYMid"
   id="svg12"
   xmlns="http://www.w3.org/2000/svg"
   xmlns:svg="http://www.w3.org/2000/svg">
  <defs
     id="defs12" />
  <g
     transform="matrix(0.1,0,0,-0.1,-2,70.872289)"
     fill="#000000"
     stroke="none"
     id="g12"
     style="fill:#f9f9f9">
    <path
       d="m 1035,701 c -16,-4 -47,-16 -68,-26 -31,-14 -37,-22 -33,-39 3,-12 8,-44 11,-71 l 7,-51 38,38 c 33,34 43,38 87,38 104,0 165,-102 113,-187 -39,-64 -120,-81 -183,-39 l -35,24 5,-36 c 15,-101 17,-105 53,-115 19,-5 56,-7 82,-4 99,12 176,77 204,173 20,71 13,126 -26,187 -47,74 -175,128 -255,108 z"
       id="path1"
       style="fill:#f9f9f9" />
    <path
       d="m 1430,688 c -51,-27 -80,-74 -80,-131 0,-67 30,-103 100,-122 64,-18 90,-37 90,-66 0,-17 -7,-32 -18,-38 -22,-12 -82,0 -116,23 -23,14 -25,14 -39,-7 -42,-65 -42,-66 5,-86 137,-60 266,-13 283,103 13,81 -30,131 -139,163 -38,11 -55,37 -40,60 12,19 49,22 96,9 23,-7 29,-4 43,24 23,44 15,56 -46,74 -70,21 -87,20 -139,-6 z"
       id="path2"
       style="fill:#f9f9f9" />
    <path
       d="m 465,678 c -4,-11 -75,-424 -75,-435 0,-1 24,-3 54,-3 62,0 56,-11 77,140 16,117 22,123 48,49 13,-34 36,-91 52,-126 24,-54 32,-64 50,-61 18,2 32,28 74,127 58,137 56,137 70,6 13,-130 10,-125 71,-125 45,0 54,3 54,18 0,15 -42,312 -55,390 l -6,33 -57,-3 -57,-3 -44,-112 c -25,-62 -48,-113 -52,-113 -3,0 -24,46 -44,103 -21,56 -43,108 -48,115 -5,7 -31,12 -59,12 -30,0 -50,-5 -53,-12 z"
       id="path3"
       style="fill:#f9f9f9" />
    <path
       d="M 20,460 V 240 h 55 55 v 80 c 0,44 3,80 8,80 4,0 31,-36 60,-80 l 52,-80 h 66 66 l -38,53 c -21,28 -48,66 -61,83 -29,38 -29,47 -1,59 40,19 63,62 62,120 0,98 -48,125 -214,125 H 20 Z m 188,124 c 46,-32 12,-104 -48,-104 -30,0 -30,0 -30,60 0,59 0,60 28,60 15,0 38,-7 50,-16 z"
       id="path4"
       style="fill:#f9f9f9" />
    <path
       d="m 720,178 c 0,-21 2,-38 4,-38 9,0 12,50 5,62 -6,8 -9,-1 -9,-24 z"
       id="path5"
       style="fill:#f9f9f9" />
    <path
       d="m 495,181 c -3,-5 0,-13 6,-17 8,-4 7,-9 -2,-15 -11,-7 -10,-9 4,-9 9,0 17,7 17,15 0,8 -5,15 -11,15 -5,0 -7,5 -4,10 3,6 4,10 1,10 -3,0 -7,-4 -11,-9 z"
       id="path6"
       style="fill:#f9f9f9" />
    <path
       d="m 560,185 c 0,-6 5,-16 11,-22 8,-8 8,-17 0,-32 -7,-12 -9,-21 -7,-21 3,0 15,19 26,43 12,23 14,34 6,24 -14,-18 -15,-18 -25,0 -6,10 -11,13 -11,8 z"
       id="path7"
       style="fill:#f9f9f9" />
    <path
       d="m 650,181 c 0,-6 5,-13 11,-17 8,-4 7,-9 -2,-15 -10,-6 -10,-9 -2,-9 16,0 26,17 13,25 -6,4 -8,11 -5,16 4,5 1,9 -4,9 -6,0 -11,-4 -11,-9 z"
       id="path8"
       style="fill:#f9f9f9" />
    <path
       d="m 774,175 c -8,-19 4,-35 24,-34 15,1 15,2 0,6 -10,2 -18,11 -18,20 0,10 6,14 20,10 11,-3 18,-1 14,4 -8,14 -34,11 -40,-6 z"
       id="path9"
       style="fill:#f9f9f9" />
    <path
       d="m 862,165 c 0,-16 2,-22 5,-12 2,9 2,23 0,30 -3,6 -5,-1 -5,-18 z"
       id="path10"
       style="fill:#f9f9f9" />
    <path
       d="m 889,161 c 5,-25 6,-25 9,-3 4,27 19,29 25,2 4,-17 4,-16 3,2 -1,16 -8,23 -22,24 -17,1 -20,-3 -15,-25 z"
       id="path11"
       style="fill:#f9f9f9" />
    <path
       d="m 975,181 c -3,-5 0,-13 6,-17 8,-4 7,-9 -2,-15 -11,-7 -10,-9 4,-9 9,0 17,7 17,15 0,8 -6,15 -12,15 -9,0 -8,4 2,10 9,6 10,10 3,10 -6,0 -14,-4 -18,-9 z"
       id="path12"
       style="fill:#f9f9f9" />
  </g>
</svg>
